<?xml version="1.0" encoding="UTF-8" standalone="no"?>
<!-- Created with Inkscape (http://www.inkscape.org/) -->

<svg
   width="210mm"
   height="297mm"
   viewBox="0 0 210 297"
   version="1.1"
   id="svg1"
   xml:space="preserve"
   inkscape:version="1.3.2 (091e20ef0f, 2023-11-25)"
   sodipodi:docname="immich-dist.svg"
   inkscape:export-filename="immich-dist.png"
   inkscape:export-xdpi="96"
   inkscape:export-ydpi="96"
   xmlns:inkscape="http://www.inkscape.org/namespaces/inkscape"
   xmlns:sodipodi="http://sodipodi.sourceforge.net/DTD/sodipodi-0.dtd"
   xmlns="http://www.w3.org/2000/svg"
   xmlns:svg="http://www.w3.org/2000/svg"><sodipodi:namedview
     id="namedview1"
     pagecolor="#ffffff"
     bordercolor="#000000"
     borderopacity="0.25"
     inkscape:showpageshadow="2"
     inkscape:pageopacity="0.0"
     inkscape:pagecheckerboard="0"
     inkscape:deskcolor="#d1d1d1"
     inkscape:document-units="mm"
     inkscape:zoom="2"
     inkscape:cx="338"
     inkscape:cy="521.75"
     inkscape:window-width="2238"
     inkscape:window-height="1334"
     inkscape:window-x="675"
     inkscape:window-y="47"
     inkscape:window-maximized="0"
     inkscape:current-layer="layer1" /><defs
     id="defs1" /><g
     inkscape:label="Layer 1"
     inkscape:groupmode="layer"
     id="layer1"><path
       style="fill:#ffffff;fill-opacity:1;stroke:#000000;stroke-width:1.577;stroke-dasharray:none;stroke-opacity:1"
       d="m 121.50078,104.9556 -11.00724,10.42318 25.74527,20.39254 14.84058,-16.68933 z"
       id="path12"
       inkscape:export-filename="immich-dist.png"
       inkscape:export-xdpi="96"
       inkscape:export-ydpi="96" /><path
       style="fill:#ffffff;fill-opacity:1;stroke:#000000;stroke-width:1.577;stroke-dasharray:none;stroke-opacity:1"
       d="m 95.54344,104.37767 c -0.790069,0.32748 -29.207229,15.46769 -29.207229,15.46769 l 12.609486,13.87579 28.962073,-15.58665 z"
       id="path11" /><path
       style="fill:#2b0000;stroke:none"
       d="m 121.31134,102.39021 c -2.58819,3.39693 -6.0621,6.02615 -9.26041,8.80781 -0.83737,0.72829 -2.15366,2.65351 -3.43959,2.28407 -1.21027,-0.3477 -2.27017,-1.77031 -3.175,-2.58029 -2.0164,-1.80507 -4.16496,-3.41922 -6.085406,-5.33659 -0.88316,-0.88173 -2.26577,-2.92899 -3.70417,-2.60806 -3.02684,0.67536 -6.45169,3.51961 -9.26042,4.92398 -7.729275,3.86464 -15.273855,7.89184 -23.283335,11.17783 2.03781,3.52539 5.60966,6.4034 8.46667,9.26042 1.45106,1.45106 2.88497,3.35777 4.7625,4.23333 -0.68883,1.40048 -2.14328,1.97424 -3.43958,2.75159 -2.76198,1.65626 -5.67327,3.0259 -8.46667,4.62306 -1.01544,0.58059 -3.74304,1.75415 -4.03449,2.97084 -0.34532,1.44162 2.28824,2.55113 3.24074,3.13193 2.92438,1.78318 6.08119,3.15473 8.99583,4.95971 0.94848,0.58737 2.33604,1.08013 3.01535,1.99214 0.77793,1.04439 0.42424,2.9477 0.42424,4.17698 v 9.525 c 0,1.09301 -0.34025,2.90538 0.27193,3.86545 1.14672,1.79838 5.25859,3.06098 7.1364,4.00652 6.025685,3.03415 11.956315,6.24294 17.991671,9.26062 1.8785,0.93925 5.58108,3.81851 7.67291,3.54452 10.28994,-5.07267 21.04898,-9.6424 30.42708,-16.44378 l 1.63487,-1.37947 c 0.85373,-1.67109 -0.21707,-15.68774 0.17918,-16.37769 1.72389,-3.00161 12.10132,-5.10883 14.67954,-9.75869 0.86065,-1.5522 -1.98148,-2.57825 -2.99984,-3.17275 -3.74417,-2.18579 -8.00816,-5.41616 -12.17083,-6.61764 l 5.0034,-5.29167 8.22577,-8.73125 v -0.52917 l -23.54792,-11.58368 -9.26042,-5.08507 m -25.664576,4.49792 11.377076,10.05417 c -6.34419,3.62446 -12.945226,6.8327 -19.314586,10.43103 -1.79341,1.01318 -5.622165,4.19525 -7.672905,4.05429 -1.2122,-0.0833 -2.38364,-1.78643 -3.175,-2.57907 -2.41901,-2.4229 -6.22572,-5.36333 -7.67292,-8.46667 l 26.458335,-13.49375 m 52.122916,13.75833 c -1.37566,2.92555 -5.36998,5.81866 -7.64822,8.19167 -0.76378,0.79556 -1.76437,2.51183 -2.93613,2.68095 -1.75303,0.25301 -5.61085,-2.92799 -7.14274,-3.8338 -6.26385,-3.70387 -13.81292,-6.3464 -19.57916,-10.74298 2.16568,-2.62208 5.66759,-4.52573 8.20208,-6.85651 0.8539,-0.78526 2.24345,-2.51388 3.43958,-2.66278 1.82784,-0.22754 5.28352,2.48922 6.87917,3.3522 6.13529,3.31817 12.97747,6.04094 18.78542,9.87125 m -40.74584,28.04583 c -3.20425,2.15988 -6.51846,4.204 -9.789576,6.26569 -1.17964,0.7435 -2.80753,2.24831 -4.23333,2.35696 -2.2866,0.17423 -6.48861,-2.73731 -8.46668,-3.86015 -6.107245,-3.46674 -12.468075,-6.48464 -18.520825,-10.05416 l 10.05417,-6.17647 4.23333,-2.42494 7.143745,3.24523 13.758336,7.39853 5.82083,3.24931 m 43.92084,-5.55624 v 0.52916 c -6.8201,2.83946 -13.00975,7.2852 -19.57917,10.64805 -1.77206,0.90711 -4.82001,3.60737 -6.87917,3.38692 -1.38448,-0.14823 -3.05777,-1.81753 -4.23333,-2.5456 -3.34703,-2.07296 -6.69578,-4.14188 -10.05417,-6.1977 1.89911,-1.58992 4.44725,-2.59195 6.61459,-3.78501 4.39203,-2.41771 8.74256,-4.88349 13.22916,-7.12824 1.76068,-0.8809 4.86912,-3.5329 6.87917,-3.23563 1.42873,0.21129 3.02368,1.60165 4.23333,2.35512 3.21352,2.00163 6.29967,4.4691 9.78959,5.97293 m -42.8625,8.99583 c 0.94432,5.08651 0.20569,10.73742 0.0686,15.875 -0.13758,5.15587 0.19599,10.43059 0.19599,15.61041 -7.2407,-2.65092 -14.014136,-7.43848 -20.902086,-10.91344 -1.79518,-0.90567 -6.639465,-2.41349 -7.513265,-4.27111 -0.51099,-1.08631 -0.15965,-2.95034 -0.15965,-4.13003 v -9.525 l 9.524995,4.84396 3.70418,1.60056 4.49792,-2.47658 10.583326,-6.61377"
       id="path1-3"
       sodipodi:nodetypes="csssssscscssssssssssscccsssccccccccssscccssscsssccsssccccccccssscssssccscsssccccc"
       inkscape:export-filename="./path1-3.png"
       inkscape:export-xdpi="96"
       inkscape:export-ydpi="96" /><path
       style="fill:#ffcc00;fill-opacity:1;stroke-width:1.502;stroke:#000000;stroke-opacity:1;stroke-dasharray:none"
       d="m 78.986176,156.13372 c 3.462951,5.93466 26.604164,12.46213 37.479784,2.39276 17.40886,-16.11831 10.06312,-35.20099 -3.18817,-51.83799 -3.17365,-3.98449 -7.91035,0.7753 -9.78832,3.13817 -8.641942,10.38755 -11.677323,33.33674 -24.501541,46.3024"
       id="path7-9"
       sodipodi:nodetypes="csssc" /><path
       style="fill:#ff0000;fill-opacity:1;stroke-width:1.577;stroke:#000000;stroke-opacity:1;stroke-dasharray:none"
       d="m 79.507915,167.8275 c 5.349044,3.91595 27.689555,2.25662 32.873515,-9.55746 8.29799,-18.91099 -5.6762,-32.67197 -23.688127,-42.55618 -4.313766,-2.36722 -6.420111,3.09254 -7.062747,5.65673 -3.153727,11.39193 3.547784,31.60435 -2.123031,46.45245"
       id="path7-6-2"
       sodipodi:nodetypes="csssc" /><path
       style="fill:#800000;fill-opacity:1;stroke:#000000;stroke-width:1.512;stroke-dasharray:none;stroke-opacity:1"
       d="m 99.621336,141.33836 c -0.0843,5.25515 10.451134,18.06441 19.803234,15.23857 14.97008,-4.52338 17.32419,-20.04343 15.6124,-36.06393 -0.40996,-3.83685 -4.60848,-2.35412 -6.43244,-1.44593 -8.23068,3.85224 -17.58711,18.20125 -28.980674,22.26879"
       id="path7"
       sodipodi:nodetypes="csssc" /><g
       id="g10"
       transform="translate(-6.2602122,-79.358108)"><path
         style="fill:#f9f9f9;fill-opacity:1;stroke-width:0.264583"
         d="m 114.88966,264.61016 c -0.77586,0 -31.176103,-16.28931 -31.176103,-16.28931 l 0.986406,-17.67246 31.266117,-2.44151 0.78164,34.93644 z"
         id="path10" /><path
         style="fill:#f9f9f9;fill-opacity:1;stroke-width:0.264583"
         d="m 115.1973,227.90076 16.37978,10.13589 28.39994,-16.19193 -17.08368,-9.90688 z"
         id="path9" /><path
         style="fill:#f9f9f9;fill-opacity:1;stroke-width:0.264583"
         d="M 86.788838,212.12218 69.531816,222.42236 99.54925,238.70348 115.2284,227.35706 Z"
         id="path8" /><path
         style="fill:#000000;stroke:none"
         d="m 115.02853,225.07507 c -4.21762,-1.56583 -26.982375,-15.83775 -29.229895,-14.56205 -3.01835,1.71323 -13.38991,7.54443 -14.99107,8.45991 -1.01544,0.58059 -3.74304,1.75415 -4.03449,2.97084 -0.34532,1.44162 2.28824,2.55113 3.24074,3.13193 2.92438,1.78318 6.08119,3.15473 8.99583,4.95971 0.94848,0.58737 2.33604,1.08013 3.01535,1.99214 0.77793,1.04439 0.42424,2.9477 0.42424,4.17698 v 9.525 c 0,1.09301 -0.34025,2.90538 0.27193,3.86545 1.14672,1.79838 5.25859,3.06098 7.1364,4.00652 6.02569,3.03415 11.956315,6.24294 17.991675,9.26062 1.8785,0.93925 5.58108,3.81851 7.67291,3.54452 10.28994,-5.07267 21.04898,-9.6424 30.42708,-16.44378 l 1.63487,-1.37947 c 0.85373,-1.67109 -0.21707,-15.68774 0.17918,-16.37769 1.72389,-3.00161 12.10133,-5.10883 14.67954,-9.75869 0.69578,-1.25485 -14.29551,-9.12714 -18.95189,-11.70798 -1.10336,-0.61155 -24.81581,13.31582 -27.83736,14.34794 m -2.24809,2.65089 c -3.20425,2.15988 -6.51846,4.204 -9.78958,6.26569 -1.17964,0.7435 -2.80753,2.24831 -4.233335,2.35696 -2.28659,0.17423 -6.4886,-2.73731 -8.46667,-3.86015 -6.10725,-3.46674 -12.46808,-6.48464 -18.52083,-10.05416 l 10.05417,-6.17647 4.23333,-2.42494 7.14375,3.24523 13.758335,7.39853 5.82083,3.24931 m 43.92084,-5.55624 v 0.52916 c -6.8201,2.83946 -13.00975,7.2852 -19.57917,10.64805 -1.77206,0.90711 -4.82001,3.60737 -6.87917,3.38692 -1.38448,-0.14823 -3.05777,-1.81753 -4.23333,-2.5456 -3.34703,-2.07296 -6.69578,-4.14188 -10.05417,-6.1977 1.89911,-1.58992 4.44725,-2.59195 6.61459,-3.78501 4.39203,-2.41771 8.74256,-4.88349 13.22916,-7.12824 1.76068,-0.8809 4.86912,-3.5329 6.87917,-3.23563 1.42873,0.21129 3.02368,1.60165 4.23333,2.35512 3.21352,2.00163 6.29967,4.4691 9.78959,5.97293 m -42.8625,8.99583 c 0.94432,5.08651 0.20569,10.73742 0.0686,15.875 -0.13758,5.15587 0.19599,10.43059 0.19599,15.61041 -7.2407,-2.65092 -14.01414,-7.43848 -20.902085,-10.91344 -1.79518,-0.90567 -6.63947,-2.41349 -7.51327,-4.27111 -0.51099,-1.08631 -0.15965,-2.95034 -0.15965,-4.13003 v -9.525 l 9.525,4.84396 3.70417,1.60056 4.497925,-2.47658 10.58333,-6.61377"
         id="path1-3-2"
         sodipodi:nodetypes="cssssssssssscccsssccsssccccccccssscssssccscsssccccc" /></g><text
       xml:space="preserve"
       style="font-style:normal;font-variant:normal;font-weight:normal;font-stretch:normal;font-size:24.2032px;font-family:Serif;-inkscape-font-specification:Serif;fill:#000000;fill-opacity:1;stroke-width:2.01692"
       x="99.370857"
       y="183.66083"
       id="text10"
       transform="matrix(1.0282581,-0.01143171,-0.01920528,0.972732,0,0)"><tspan
         sodipodi:role="line"
         id="tspan10"
         style="font-style:normal;font-variant:normal;font-weight:normal;font-stretch:normal;font-family:Serif;-inkscape-font-specification:Serif;stroke-width:2.01692"
         x="99.370857"
         y="183.66083">I</tspan></text><text
       xml:space="preserve"
       style="font-style:normal;font-variant:normal;font-weight:normal;font-stretch:normal;font-size:21.549px;font-family:Serif;-inkscape-font-specification:Serif;fill:#ffffff;fill-opacity:1;stroke-width:1.79575"
       x="119.02764"
       y="162.92845"
       id="text11"
       transform="scale(0.91862752,1.0885805)"><tspan
         sodipodi:role="line"
         id="tspan11"
         style="fill:#ffffff;stroke-width:1.79575"
         x="119.02764"
         y="162.92845">D</tspan></text></g></svg>
