<?xml version="1.0" encoding="UTF-8" standalone="no"?>
<!-- Created with Inkscape (http://www.inkscape.org/) -->

<svg
   width="210mm"
   height="297mm"
   viewBox="0 0 210 297"
   version="1.1"
   id="svg5"
   xml:space="preserve"
   inkscape:version="1.2.2 (b0a8486541, 2022-12-01)"
   sodipodi:docname="immich-dist.svg"
   xmlns:inkscape="http://www.inkscape.org/namespaces/inkscape"
   xmlns:sodipodi="http://sodipodi.sourceforge.net/DTD/sodipodi-0.dtd"
   xmlns:xlink="http://www.w3.org/1999/xlink"
   xmlns="http://www.w3.org/2000/svg"
   xmlns:svg="http://www.w3.org/2000/svg"><sodipodi:namedview
     id="namedview7"
     pagecolor="#ffffff"
     bordercolor="#666666"
     borderopacity="1.0"
     inkscape:showpageshadow="2"
     inkscape:pageopacity="0.0"
     inkscape:pagecheckerboard="0"
     inkscape:deskcolor="#d1d1d1"
     inkscape:document-units="mm"
     showgrid="false"
     inkscape:zoom="1.2938725"
     inkscape:cx="259.68556"
     inkscape:cy="329.63062"
     inkscape:window-width="2365"
     inkscape:window-height="1362"
     inkscape:window-x="1102"
     inkscape:window-y="38"
     inkscape:window-maximized="0"
     inkscape:current-layer="layer1" /><defs
     id="defs2"><linearGradient
       id="linearGradient9945"
       inkscape:swatch="solid"><stop
         style="stop-color:#242424;stop-opacity:1;"
         offset="0"
         id="stop9943" /></linearGradient><linearGradient
       inkscape:collect="always"
       id="linearGradient5167"><stop
         style="stop-color:#834a22;stop-opacity:1;"
         offset="0"
         id="stop5163" /><stop
         style="stop-color:#8a4d26;stop-opacity:1;"
         offset="1"
         id="stop5165" /></linearGradient><linearGradient
       inkscape:collect="always"
       id="linearGradient5159"><stop
         style="stop-color:#ae602e;stop-opacity:1;"
         offset="0"
         id="stop5155" /><stop
         style="stop-color:#99572a;stop-opacity:1;"
         offset="1"
         id="stop5157" /></linearGradient><linearGradient
       inkscape:collect="always"
       xlink:href="#linearGradient5159"
       id="linearGradient5161"
       x1="72.672478"
       y1="145.20866"
       x2="119.8002"
       y2="145.20866"
       gradientUnits="userSpaceOnUse" /><linearGradient
       inkscape:collect="always"
       xlink:href="#linearGradient5167"
       id="linearGradient5169"
       x1="118.82824"
       y1="143.16841"
       x2="136.12185"
       y2="143.16841"
       gradientUnits="userSpaceOnUse" /></defs><g
     inkscape:label="Layer 1"
     inkscape:groupmode="layer"
     id="layer1"><path
       style="fill:#d40000;stroke:none;stroke-width:1.01022"
       d="m 78.807133,55.739345 h 1.02397 c 13.93298,-11.88384 32.677067,-9.257024 47.103377,0 24.4948,-35.542396 -73.420257,-32.838399 -48.127347,0 M 60.375373,102.58109 C 56.230673,87.888345 58.967663,67.439742 74.711163,59.7259 71.267703,48.82124 60.685723,46.027291 52.755163,54.870909 42.078598,66.77656 29.716952,114.7657 60.375373,102.58109 M 130.00644,58.729243 c 14.58263,8.496508 21.98913,28.957163 14.33583,43.851847 3.9618,1.07945 9.18721,3.3112 13.2975,2.03045 6.55145,-2.04153 7.9871,-10.195481 7.64203,-15.983321 -0.99328,-16.702368 -16.89886,-56.31419 -35.27536,-29.898976 m -43.007437,3.986555 -2.04795,-5.979795 c 13.45199,-3.706004 22.437367,-5.043482 35.839507,0 l -2.04794,5.979795 c 10.2503,-2.117771 0.0569,-9.414402 -5.11995,-10.784161 -7.87467,-2.083756 -18.016527,-1.877486 -25.567537,1.346255 -5.16588,2.205424 -8.022,7.996351 -1.05613,9.437906 m -23.55167,34.882114 c 0,-12.674943 1.17131,-24.525636 12.28784,-32.888874 0.78069,0.996244 4.71269,3.518041 3.96752,0.07044 -1.34806,-6.237331 -9.61246,0.954282 -11.17423,2.950723 -5.69104,7.274633 -7.38277,15.939554 -7.11407,24.883708 0.0608,2.021378 3.10881,12.072931 6.7796,7.289286 2.15725,-2.811012 -3.78496,-2.427213 -4.74666,-2.305319 M 130.00644,64.709001 c 10.32272,7.544938 14.54475,20.752281 12.28785,32.888874 h -6.14392 c 4.40949,6.610585 8.95886,-0.818639 9.12272,-5.979871 0.25698,-8.04871 -2.9872,-17.478066 -7.92947,-23.887804 -1.56843,-2.034109 -9.96224,-9.161649 -11.3047,-2.950723 -0.74516,3.447564 3.18687,0.925767 3.96752,-0.07044 M 96.214883,129.49016 c -12.53747,-1.96706 -23.05238,-9.85918 -28.67162,-20.92928 l 4.09593,-4.98317 c -6.95019,1.35582 -6.65915,6.91742 -3.07962,11.95951 4.98774,7.02546 12.99582,12.82614 21.51139,15.113 2.29448,0.61693 12.714877,0.68074 9.90833,-4.34568 -1.7405,-3.11736 -3.57013,2.28965 -3.76441,3.18562 m 37.887537,-24.91579 4.09593,4.98313 c -7.16484,10.14772 -16.4193,19.17392 -29.69563,19.93266 l -3.07196,-4.98317 c -1.18997,6.70038 4.56527,7.5794 10.2399,6.1841 8.14333,-2.00311 15.93487,-7.61078 20.8675,-14.15797 3.6151,-4.79826 4.55459,-10.55909 -2.43574,-11.95875 m -33.79157,28.90231 C 85.073313,136.08187 64.102863,121.7883 62.423313,106.5676 19.11597,116.6957 100.04543,178.3381 100.31085,133.47668 M 143.3183,106.5676 c -1.88648,14.79185 -22.72554,30.15113 -37.88754,26.90908 1.2e-4,3.72842 -0.73642,8.48136 1.17731,11.86892 3.65745,6.47412 12.34199,5.23231 18.27847,3.19319 16.18512,-5.55723 49.22714,-33.4395 18.43176,-41.97119 z"
       id="path9896"
       sodipodi:nodetypes="ccccccscccsccccccsscccscsscccccssccccscsccccccsccccccscc" /><g
       id="g9906"
       transform="matrix(0.93212986,0,0,0.94272737,6.6028101,-33.830145)"
       style="opacity:1;stroke:#562105;stroke-width:0.999664;stroke-dasharray:none;stroke-opacity:1"><path
         style="fill:#905027;fill-opacity:1;stroke:#562105;stroke-width:0.999664;stroke-linecap:butt;stroke-linejoin:miter;stroke-dasharray:none;stroke-opacity:1"
         d="m 95.158694,116.3593 40.766706,3.51405 -2.63177,6.33794 -17.8491,8.5895 -20.433924,-1.38259 -5.908116,-10.31373 z"
         id="path4300" /><path
         style="fill:url(#linearGradient5169);fill-opacity:1;stroke:#562105;stroke-width:0.999664;stroke-linecap:butt;stroke-linejoin:miter;stroke-dasharray:none;stroke-opacity:1"
         d="m 119.67825,128.80969 c -0.10224,0.42239 -0.71234,37.60499 -0.71234,37.60499 l 15.5275,-15.66846 1.48494,-30.92079 z"
         id="path4294" /><path
         style="fill:url(#linearGradient5161);fill-opacity:1;stroke:#562105;stroke-width:0.999664;stroke-linecap:butt;stroke-linejoin:miter;stroke-dasharray:none;stroke-opacity:1"
         d="m 74.40069,157.10246 44.53319,9.36342 0.73169,-37.33102 -46.853531,-5.19718 z"
         id="path4296" /><path
         style="fill:#7d4520;fill-opacity:1;stroke:#562105;stroke-width:0.999664;stroke-linecap:butt;stroke-linejoin:miter;stroke-dasharray:none;stroke-opacity:1"
         d="m 72.888561,123.82478 22.102551,-7.22301 0.176869,11.87002 z"
         id="path4298" /><path
         style="fill:#8a4d25;fill-opacity:1;stroke:#562105;stroke-width:0.999664;stroke-linecap:butt;stroke-linejoin:miter;stroke-dasharray:none;stroke-opacity:1"
         d="m 72.95226,123.72839 -13.471206,-16.3861 23.954049,-4.23029 11.37773,13.39788 z"
         id="path5028"
         sodipodi:nodetypes="ccccc" /><path
         style="fill:#9b572a;fill-opacity:1;stroke:#562105;stroke-width:0.999664;stroke-linecap:butt;stroke-linejoin:miter;stroke-dasharray:none;stroke-opacity:1"
         d="m 101.47851,102.7904 -6.450679,13.79335 40.171019,3.48518 4.65171,-15.29228 z"
         id="path5030" /><path
         style="fill:#7e4521;fill-opacity:1;stroke:#562105;stroke-width:0.999664;stroke-linecap:butt;stroke-linejoin:miter;stroke-dasharray:none;stroke-opacity:1"
         d="m 137.5393,110.1148 -17.81529,18.91421 16.24862,-9.00563 14.92901,-14.88738 z"
         id="path5032" /><path
         style="fill:#ab6030;fill-opacity:1;stroke:#562105;stroke-width:0.999664;stroke-linecap:butt;stroke-linejoin:miter;stroke-dasharray:none;stroke-opacity:1"
         d="m 72.729528,123.73951 -14.909138,3.0912 50.37158,6.22138 11.54886,-3.99211 z"
         id="path5034" /></g></g></svg>
